<?xml version="1.0" standalone="no"?>
<!DOCTYPE svg PUBLIC "-//W3C//DTD SVG 20010904//EN"
 "http://www.w3.org/TR/2001/REC-SVG-20010904/DTD/svg10.dtd">
<svg version="1.0" xmlns="http://www.w3.org/2000/svg"
 width="200.000000pt" height="200.000000pt" viewBox="0 0 200.000000 200.000000"
 preserveAspectRatio="xMidYMid meet">

<g transform="translate(0.000000,200.000000) scale(0.100000,-0.100000)"
fill="#000000" stroke="none">
<path d="M895 1813 c-11 -2 -54 -15 -95 -30 -359 -123 -526 -534 -358 -879 80
-164 234 -288 415 -335 325 -83 672 116 767 441 100 339 -118 713 -464 794
-59 14 -217 20 -265 9z m292 -568 c73 -175 133 -326 133 -335 0 -22 -20 -40
-45 -40 -13 0 -91 56 -190 136 -92 74 -171 132 -175 127 -5 -4 -31 -64 -58
-133 l-50 -125 -46 -3 c-31 -2 -46 1 -46 9 0 16 258 638 277 667 10 17 22 22
41 20 24 -3 35 -24 159 -323z"/>
<path d="M1011 1399 c-5 -13 -19 -49 -31 -79 -12 -30 -26 -65 -30 -76 -8 -21
9 -37 218 -197 15 -12 21 -28 -73 203 -37 91 -69 167 -71 169 -2 2 -8 -7 -13
-20z"/>
<path d="M783 410 c-27 -11 -39 -46 -22 -66 7 -9 35 -27 62 -40 34 -18 47 -30
45 -42 -3 -14 -14 -17 -61 -16 -67 2 -73 -16 -10 -30 57 -12 98 8 98 49 0 25
-8 34 -55 60 -72 40 -73 60 -1 60 64 0 79 19 24 29 -47 7 -53 7 -80 -4z"/>
<path d="M1725 413 c-36 -9 -47 -25 -41 -61 3 -18 0 -44 -6 -56 -23 -52 33
-93 110 -81 61 9 49 30 -14 26 -84 -4 -106 55 -23 61 49 4 67 28 21 28 -43 0
-62 9 -62 31 0 22 35 33 80 27 40 -6 48 18 8 26 -33 6 -42 6 -73 -1z"/>
<path d="M257 403 c-3 -5 -15 -31 -26 -59 -10 -27 -27 -66 -35 -86 -15 -34
-15 -38 -1 -38 9 0 23 16 31 36 l15 36 44 -36 c75 -62 82 -45 32 73 -30 70
-49 93 -60 74z m51 -129 c-2 -1 -16 8 -32 21 -25 20 -27 25 -15 46 12 23 12
23 31 -20 10 -24 17 -45 16 -47z"/>
<path d="M467 403 c-4 -3 -7 -46 -7 -95 0 -81 2 -88 20 -88 18 0 20 7 20 67
l0 66 56 -71 c30 -40 60 -70 65 -67 5 4 9 49 9 101 0 76 -3 94 -15 94 -11 0
-15 -16 -17 -67 l-3 -67 -50 67 c-48 63 -63 75 -78 60z"/>
<path d="M1020 315 c0 -78 3 -95 15 -95 12 0 15 17 15 95 0 78 -3 95 -15 95
-12 0 -15 -17 -15 -95z"/>
<path d="M1180 315 l0 -95 64 0 c56 0 67 3 80 22 20 28 20 43 1 62 -11 11 -13
21 -6 39 7 18 5 30 -5 46 -13 17 -25 21 -75 21 l-59 0 0 -95z m105 45 c0 -22
-5 -25 -37 -28 -36 -3 -38 -2 -38 28 0 30 2 31 38 28 32 -3 37 -6 37 -28z m19
-76 c10 -26 -13 -44 -55 -44 -37 0 -39 2 -39 30 0 29 2 30 44 30 31 0 46 -5
50 -16z"/>
<path d="M1450 315 l0 -95 65 0 c37 0 65 4 65 10 0 6 -22 10 -50 10 l-50 0 0
85 c0 69 -3 85 -15 85 -12 0 -15 -17 -15 -95z"/>
</g>
</svg>
