<?xml version="1.0" standalone="no"?>
<!DOCTYPE svg PUBLIC "-//W3C//DTD SVG 20010904//EN"
 "http://www.w3.org/TR/2001/REC-SVG-20010904/DTD/svg10.dtd">
<svg version="1.0" xmlns="http://www.w3.org/2000/svg"
 width="835.000000pt" height="676.000000pt" viewBox="0 0 835.000000 676.000000"
 preserveAspectRatio="xMidYMid meet">

<g transform="translate(0.000000,676.000000) scale(0.100000,-0.100000)"
fill="#000000" stroke="none">
<path d="M1010 6719 c25 -4 99 -8 165 -8 187 -2 564 -20 630 -31 33 -5 143
-16 245 -24 227 -18 558 -53 585 -61 11 -4 76 -15 145 -25 175 -26 307 -48
360 -61 25 -5 83 -17 130 -25 47 -8 94 -19 105 -24 11 -4 52 -13 90 -20 39 -6
90 -18 115 -26 52 -16 137 -39 230 -59 36 -9 74 -19 85 -25 11 -5 52 -18 90
-28 126 -36 190 -56 195 -62 3 -3 28 -13 55 -22 149 -50 180 -62 185 -68 3 -4
20 -11 38 -15 39 -8 44 -17 77 -145 31 -121 56 -203 95 -310 17 -47 36 -101
41 -120 6 -19 14 -39 19 -45 4 -5 16 -35 26 -65 10 -30 22 -57 25 -60 3 -3 10
-16 14 -30 4 -14 15 -43 25 -65 67 -153 68 -155 50 -155 -10 0 -29 -11 -135
-79 -149 -95 -264 -220 -333 -361 -9 -19 -19 -37 -22 -40 -9 -9 -59 -161 -80
-243 -11 -44 -24 -118 -30 -165 -6 -48 -15 -118 -21 -155 -21 -133 32 -390
111 -534 73 -133 210 -283 330 -361 36 -23 70 -46 76 -51 6 -5 38 -21 70 -36
32 -15 77 -35 99 -46 39 -17 158 -52 240 -70 22 -5 135 -13 250 -19 116 -5
311 -14 435 -20 124 -6 250 -14 280 -19 79 -13 241 -50 265 -60 11 -6 37 -15
58 -21 22 -7 51 -18 65 -26 15 -8 31 -14 35 -14 24 0 288 -140 315 -167 7 -7
17 -13 22 -13 10 0 123 -76 185 -124 151 -117 343 -329 473 -522 42 -63 82
-130 103 -172 13 -26 27 -49 30 -52 13 -12 151 -306 164 -350 4 -14 11 -29 15
-35 4 -5 13 -28 19 -50 7 -22 17 -49 22 -60 13 -28 46 -144 70 -245 11 -46 22
-86 25 -89 22 -22 -36 321 -65 384 -6 11 -17 47 -26 80 -9 33 -20 65 -25 70
-4 6 -10 23 -14 40 -11 45 -130 295 -181 380 -13 22 -31 54 -41 70 -51 91
-194 282 -309 415 -105 120 -414 392 -482 423 -13 5 -23 14 -23 18 0 4 -9 11
-20 14 -11 3 -20 11 -20 17 0 11 102 2 129 -12 9 -4 54 -16 101 -25 47 -9 90
-20 95 -25 6 -4 25 -10 43 -14 19 -3 48 -12 65 -20 18 -8 52 -21 77 -29 73
-25 150 -60 220 -98 36 -20 75 -40 88 -43 12 -4 22 -12 22 -17 0 -5 5 -9 11
-9 14 0 147 -91 224 -153 148 -120 316 -322 395 -476 59 -112 68 -103 15 14
-12 28 -25 57 -29 65 -9 23 -86 160 -96 173 -5 7 -33 44 -62 84 -177 241 -414
416 -798 591 -100 46 -163 72 -172 72 -6 0 -24 7 -41 14 -45 21 -210 74 -254
82 -21 4 -42 10 -48 14 -5 4 -39 12 -75 19 -36 7 -76 16 -90 21 -45 18 -282
51 -465 66 -99 8 -210 19 -248 24 -37 6 -131 10 -208 10 -179 0 -420 17 -484
34 -27 8 -65 16 -83 20 -19 3 -48 12 -65 20 -18 7 -48 19 -67 26 -19 8 -42 19
-51 27 -8 7 -19 13 -23 13 -26 0 -199 153 -252 221 -62 82 -157 274 -169 344
-4 22 -13 46 -19 54 -15 20 -15 300 1 332 6 13 19 57 28 97 10 40 21 75 26 78
5 3 9 12 9 21 0 27 70 155 125 228 136 181 305 292 500 330 145 29 614 11 659
-24 6 -4 25 -11 41 -15 17 -4 44 -14 60 -21 46 -21 161 -65 168 -65 4 0 26 -9
50 -19 77 -35 221 -91 234 -91 7 0 13 -4 13 -9 0 -4 20 -14 45 -21 25 -7 45
-15 45 -19 0 -3 18 -12 41 -19 22 -7 79 -31 125 -52 46 -22 87 -40 90 -40 4 0
30 -11 58 -24 28 -13 63 -29 79 -35 22 -9 27 -17 27 -44 0 -70 20 -141 48
-170 23 -24 234 -137 256 -137 4 0 12 -5 19 -10 7 -6 35 -25 62 -42 73 -47
188 -142 232 -192 l37 -43 71 56 c39 31 79 61 90 67 27 15 30 34 6 34 -11 0
-22 4 -25 9 -3 5 -22 12 -42 16 -20 3 -62 21 -93 38 -56 32 -68 40 -100 67 -9
8 -33 28 -54 43 -37 28 -48 61 -24 70 13 5 8 15 -54 108 -41 62 -82 126 -122
194 -31 52 -29 52 -148 30 -34 -7 -38 -4 -130 86 -52 52 -108 110 -123 129
l-27 35 6 -45 c4 -25 9 -53 11 -62 8 -26 -18 -23 -63 7 -76 51 -89 61 -161
130 -63 60 -73 66 -67 43 9 -36 -1 -64 -18 -50 -6 5 -30 15 -52 22 -51 16
-113 59 -153 105 -31 35 -32 35 -32 10 0 -29 -13 -31 -55 -9 -39 20 -202 84
-215 84 -6 0 -18 4 -28 9 -30 17 -205 68 -257 76 -27 4 -55 11 -61 16 -6 5
-117 13 -247 17 -146 5 -240 12 -248 19 -8 6 -36 18 -64 26 -76 24 -172 78
-240 138 -90 79 -130 175 -187 444 -11 54 -4 224 10 253 5 9 12 31 15 49 5 27
3 33 -16 38 -12 4 -40 15 -62 25 -127 58 -155 70 -167 70 -7 0 -26 7 -42 15
-16 8 -54 22 -85 31 -31 9 -60 20 -66 24 -5 4 -34 13 -63 20 -28 6 -54 16 -57
20 -3 5 -24 11 -48 15 -23 4 -64 16 -92 26 -27 10 -79 23 -115 30 -36 6 -69
15 -75 19 -5 4 -41 13 -80 20 -38 6 -85 16 -103 22 -45 14 -243 45 -442 69
-294 36 -768 68 -1165 79 -371 11 -1015 10 -955 -1z m6201 -2257 c35 -36 60
-77 53 -85 -20 -20 -94 46 -94 85 0 35 8 35 41 0z"/>
<path d="M3630 6040 c-47 -5 -238 -13 -425 -20 -187 -6 -358 -15 -380 -20 -22
-5 -132 -14 -245 -20 -113 -6 -236 -15 -275 -21 -38 -5 -162 -18 -275 -29
-113 -11 -275 -29 -360 -40 -85 -11 -225 -28 -310 -39 -85 -11 -177 -25 -205
-31 -27 -6 -93 -17 -145 -25 -52 -8 -158 -26 -235 -40 -77 -15 -184 -34 -237
-43 -53 -9 -99 -20 -103 -24 -7 -6 5 -5 150 13 44 5 150 18 235 28 85 10 166
22 180 25 14 4 115 16 225 27 110 11 284 28 386 38 103 10 191 21 196 24 5 3
108 13 229 21 122 9 254 20 295 25 247 32 1419 45 1907 21 139 -6 255 -10 257
-8 3 2 0 20 -4 39 -5 19 -12 51 -16 72 l-6 37 -377 -1 c-207 -1 -415 -5 -462
-9z"/>
<path d="M4399 5785 c-3 -2 -70 -11 -149 -20 -80 -9 -172 -23 -205 -30 -33 -8
-89 -19 -125 -25 -36 -6 -87 -17 -115 -24 -27 -8 -113 -29 -190 -46 -77 -17
-149 -36 -160 -40 -11 -5 -47 -14 -80 -21 -33 -7 -64 -15 -70 -19 -5 -4 -44
-15 -85 -25 -41 -10 -79 -21 -85 -25 -5 -4 -35 -13 -65 -20 -30 -7 -59 -16
-65 -20 -5 -4 -26 -11 -45 -15 -44 -10 -205 -62 -245 -79 -16 -8 -46 -17 -65
-21 -19 -4 -39 -11 -45 -15 -5 -5 -37 -16 -70 -25 -33 -10 -67 -22 -75 -26
-23 -13 -145 -59 -156 -59 -5 0 -25 -8 -44 -19 -19 -10 -53 -24 -75 -31 -22
-7 -44 -16 -50 -20 -5 -4 -21 -11 -35 -15 -29 -8 -91 -35 -265 -115 -158 -72
-512 -254 -525 -269 -3 -3 -18 -13 -35 -21 -16 -8 -34 -18 -40 -23 -39 -29
-116 -77 -125 -77 -5 0 -10 -3 -10 -7 0 -5 -14 -16 -31 -26 -57 -32 -23 -29
47 5 38 18 71 35 74 38 3 3 32 19 65 34 33 16 141 68 240 116 167 81 250 121
365 172 25 11 59 26 75 33 97 44 143 63 165 70 14 4 30 11 35 15 11 9 138 60
148 60 4 0 31 11 61 25 30 14 61 25 68 25 7 0 26 7 41 15 15 8 56 22 90 31 34
9 67 20 72 25 6 4 30 12 55 18 25 7 54 16 65 21 11 5 47 17 80 26 148 40 221
61 235 67 30 12 187 49 265 63 44 8 87 19 96 24 9 5 54 14 100 20 46 7 91 16
101 20 9 5 76 16 150 25 73 9 142 20 153 25 11 5 79 14 150 20 72 6 155 15
185 20 44 7 222 19 302 20 14 0 15 4 3 43 -35 112 -31 107 -94 107 -32 0 -60
-2 -62 -5z"/>
<path d="M5920 5523 c8 -3 24 -10 35 -15 20 -9 20 -9 1 6 -11 9 -27 16 -35 15
-14 0 -14 -1 -1 -6z"/>
<path d="M5995 5491 c3 -5 19 -14 35 -20 17 -5 28 -6 25 -2 -3 5 -19 14 -35
20 -17 5 -28 6 -25 2z"/>
<path d="M6085 5446 c11 -7 49 -29 85 -48 80 -44 143 -80 150 -88 3 -3 19 -12
35 -20 17 -8 35 -19 40 -23 6 -4 46 -31 90 -60 168 -109 379 -281 505 -411 36
-38 50 -46 80 -46 l35 1 -85 80 c-108 103 -121 114 -205 179 -38 30 -72 57
-75 61 -6 7 -125 87 -235 157 -44 29 -84 55 -90 60 -5 4 -25 14 -43 21 -19 8
-39 19 -45 25 -14 13 -241 126 -253 126 -5 0 0 -6 11 -14z"/>
<path d="M1006 4565 c-11 -8 -15 -15 -9 -15 6 0 16 7 23 15 16 19 11 19 -14 0z"/>
<path d="M2163 2570 c-13 -5 -32 -24 -43 -42 -20 -32 -20 -50 -20 -1045 0
-697 3 -1019 11 -1035 6 -13 22 -32 37 -43 25 -19 45 -20 305 -23 l277 -3 0
66 0 65 -250 0 -250 0 0 959 0 958 83 6 c107 9 1950 9 3095 0 l902 -6 0 -959
0 -958 -1690 0 -1690 0 0 -65 0 -65 1717 0 1716 0 44 45 43 45 0 1005 c0 994
0 1004 -21 1039 -42 72 162 66 -2156 65 -1216 0 -2097 -4 -2110 -9z"/>
<path d="M4112 2013 c-5 -10 -15 -36 -22 -58 -7 -22 -16 -44 -20 -50 -4 -5
-10 -23 -14 -40 -4 -16 -16 -48 -26 -70 -10 -22 -22 -54 -26 -70 -4 -17 -10
-34 -14 -40 -4 -5 -15 -35 -25 -65 -10 -30 -21 -59 -25 -65 -4 -5 -13 -26 -19
-45 -5 -19 -24 -73 -41 -120 -17 -47 -38 -105 -47 -130 -9 -25 -19 -49 -23
-55 -4 -5 -13 -28 -20 -50 -15 -49 -56 -159 -75 -200 l-14 -30 72 -3 c101 -4
113 0 122 45 4 21 15 56 25 78 10 23 22 54 26 70 3 17 15 49 26 73 l18 42 215
0 214 0 15 -27 c7 -16 17 -44 21 -63 4 -19 11 -39 15 -45 4 -5 15 -35 25 -65
10 -30 21 -59 26 -65 5 -5 9 -17 9 -27 0 -16 10 -18 89 -18 l90 0 -16 47 c-9
26 -22 58 -30 72 -7 15 -13 32 -13 39 0 8 -6 28 -14 45 -29 62 -86 217 -86
231 0 8 -4 17 -9 20 -4 3 -14 27 -21 53 -7 27 -17 53 -22 59 -4 6 -15 36 -24
65 -9 30 -20 59 -24 64 -4 6 -14 30 -21 55 -7 25 -16 50 -19 55 -4 6 -15 35
-25 65 -10 30 -21 60 -25 65 -3 6 -13 30 -20 55 -8 25 -20 56 -27 70 -7 14
-13 31 -13 38 0 9 -25 12 -90 12 -75 0 -91 -3 -98 -17z m124 -216 c3 -23 10
-48 15 -57 9 -16 40 -105 65 -185 8 -27 22 -65 30 -83 9 -18 18 -49 21 -68 l6
-34 -167 0 c-120 0 -166 3 -166 12 0 12 45 150 60 183 14 30 57 164 70 215 6
25 16 55 23 68 10 21 12 22 23 7 7 -9 16 -35 20 -58z"/>
<path d="M2750 1465 l0 -545 85 0 85 0 0 206 0 207 33 32 c68 66 91 66 124 1
14 -27 27 -45 72 -102 4 -5 14 -21 21 -35 7 -13 16 -26 20 -29 4 -3 23 -30 43
-60 20 -30 52 -76 72 -102 19 -25 35 -50 35 -55 0 -4 12 -21 25 -36 24 -27 27
-28 114 -25 l90 3 -40 57 c-21 32 -39 62 -39 68 0 5 -5 10 -10 10 -6 0 -14 8
-18 18 -7 18 -63 104 -73 112 -6 5 -126 179 -144 208 -24 40 -71 108 -82 120
-14 15 -5 39 23 62 9 8 43 48 77 90 33 41 67 82 76 90 9 9 38 42 66 75 27 33
52 62 55 65 3 3 25 29 49 58 l43 52 -89 0 c-102 0 -88 10 -228 -160 -43 -52
-85 -102 -94 -111 -17 -17 -23 -24 -106 -124 -77 -92 -98 -115 -107 -115 -4 0
-8 115 -8 255 l0 255 -85 0 -85 0 0 -545z"/>
<path d="M4850 1465 l0 -545 315 0 315 0 0 70 0 70 -232 2 -233 3 -3 473 -2
472 -80 0 -80 0 0 -545z"/>
<path d="M5630 1465 l0 -545 80 0 80 0 0 545 0 545 -80 0 -80 0 0 -545z"/>
<path d="M7971 904 c0 -11 3 -14 6 -6 3 7 2 16 -1 19 -3 4 -6 -2 -5 -13z"/>
<path d="M2140 125 l0 -105 46 0 c61 0 84 14 84 50 0 16 -4 32 -10 35 -6 4
-10 -6 -10 -24 0 -35 -26 -54 -68 -49 -24 3 -27 7 -27 43 l0 40 43 0 c23 0 42
4 42 9 0 5 7 17 16 27 22 24 11 65 -18 73 -13 3 -40 6 -60 6 l-38 0 0 -105z
m103 64 c19 -31 1 -49 -48 -49 -43 0 -45 1 -45 28 0 16 3 32 7 36 13 12 76 2
86 -15z"/>
<path d="M2362 203 c7 -16 23 -44 35 -63 15 -22 23 -50 23 -77 0 -24 5 -43 10
-43 6 0 10 18 10 40 0 28 12 62 35 106 20 36 30 64 23 62 -7 -3 -23 -26 -35
-51 -13 -26 -29 -47 -36 -47 -7 0 -23 23 -34 50 -12 28 -26 50 -32 50 -7 0 -7
-9 1 -27z"/>
<path d="M2725 203 c-43 -47 -45 -105 -4 -157 17 -22 29 -26 69 -26 74 0 95
23 95 100 0 55 -3 64 -28 86 -40 34 -98 33 -132 -3z m118 -8 c36 -35 32 -123
-6 -150 -55 -38 -117 0 -117 72 0 63 23 93 70 93 21 0 45 -7 53 -15z"/>
<path d="M2990 125 c0 -63 4 -105 10 -105 6 0 10 20 10 45 l0 45 40 0 c22 0
40 5 40 10 0 6 -18 10 -40 10 l-40 0 0 40 0 40 45 0 c25 0 45 5 45 10 0 6 -25
10 -55 10 l-55 0 0 -105z"/>
<path d="M3190 125 c0 -59 4 -105 9 -105 6 0 11 19 13 43 3 41 4 42 41 45 50
4 48 22 -3 22 l-40 0 0 40 0 40 45 0 c25 0 45 5 45 10 0 6 -25 10 -55 10 l-55
0 0 -105z"/>
<path d="M3390 125 l0 -105 58 2 57 1 -45 6 c-45 6 -45 6 -48 49 l-3 42 45 0
c25 0 46 5 46 10 0 6 -20 10 -45 10 -45 0 -45 0 -45 35 0 35 0 35 45 35 25 0
45 5 45 10 0 6 -25 10 -55 10 l-55 0 0 -105z"/>
<path d="M3600 125 c0 -63 4 -105 10 -105 6 0 10 37 10 92 l0 93 34 -52 c19
-28 44 -70 57 -92 13 -25 30 -41 41 -41 16 0 18 10 18 105 0 63 -4 105 -10
105 -6 0 -10 -37 -10 -91 0 -49 -4 -88 -8 -85 -5 3 -32 43 -62 90 -29 48 -59
86 -66 86 -11 0 -14 -23 -14 -105z"/>
<path d="M3886 214 c-30 -29 -10 -94 28 -94 19 0 56 -35 56 -53 0 -9 -10 -23
-22 -31 -16 -11 -18 -16 -7 -16 29 0 51 25 47 55 -2 23 -13 34 -51 54 -41 21
-48 28 -45 50 3 23 8 26 46 29 23 2 40 7 37 13 -10 15 -72 10 -89 -7z"/>
<path d="M4090 125 c0 -63 4 -105 10 -105 6 0 10 42 10 105 0 63 -4 105 -10
105 -6 0 -10 -42 -10 -105z"/>
<path d="M4195 198 c4 -18 11 -37 15 -43 4 -5 13 -28 19 -50 29 -96 53 -110
72 -42 6 23 14 47 19 52 4 6 14 34 23 63 22 79 -1 59 -28 -23 -39 -119 -48
-131 -60 -72 -4 17 -16 51 -26 74 -11 23 -19 49 -19 57 0 9 -5 16 -11 16 -7 0
-8 -12 -4 -32z"/>
<path d="M4440 125 l0 -105 58 2 57 1 -45 6 c-45 6 -45 6 -45 46 0 40 0 40 43
43 56 4 54 22 -4 22 -45 0 -45 0 -42 33 3 30 6 32 46 35 61 5 52 22 -13 22
l-55 0 0 -105z"/>
<path d="M4770 210 c-23 -23 -20 -57 7 -75 9 -5 29 -19 46 -30 40 -26 43 -39
16 -64 -17 -16 -19 -21 -7 -21 19 0 48 32 48 53 0 9 -19 29 -42 44 -55 35 -67
49 -61 74 5 18 12 20 49 17 27 -2 43 1 41 7 -2 5 -20 11 -40 13 -26 2 -42 -3
-57 -18z"/>
<path d="M4970 125 l0 -105 58 2 57 1 -45 6 c-45 6 -45 6 -45 46 0 40 0 40 43
43 56 4 54 22 -3 22 -45 0 -45 0 -45 35 0 35 0 35 45 35 25 0 45 5 45 10 0 6
-25 10 -55 10 l-55 0 0 -105z"/>
<path d="M5200 201 c-26 -25 -30 -35 -30 -83 0 -44 4 -59 23 -76 13 -12 34
-22 48 -22 l24 1 -27 15 c-35 18 -48 43 -48 88 0 55 33 86 89 86 33 0 42 3 31
10 -30 19 -79 11 -110 -19z"/>
<path d="M5410 145 c0 -72 3 -88 20 -105 24 -24 86 -27 118 -4 20 14 22 23 22
105 0 53 -4 89 -10 89 -6 0 -10 -35 -10 -86 0 -95 -10 -113 -62 -114 -43 0
-58 32 -58 122 0 45 -4 78 -10 78 -6 0 -10 -35 -10 -85z"/>
<path d="M5680 126 c0 -60 4 -106 9 -106 6 0 11 19 13 42 5 70 42 62 83 -16 6
-11 16 -21 24 -24 10 -3 9 4 -5 29 -11 19 -22 36 -26 37 -15 7 -8 27 12 40 11
7 20 23 20 35 0 41 -23 59 -78 65 l-52 5 0 -107z m100 69 c7 -8 10 -25 6 -40
-5 -21 -12 -25 -46 -25 -40 0 -40 0 -40 40 0 39 1 40 34 40 18 0 39 -7 46 -15z"/>
<path d="M5910 125 c0 -63 4 -105 10 -105 6 0 10 42 10 105 0 63 -4 105 -10
105 -6 0 -10 -42 -10 -105z"/>
<path d="M6010 220 c0 -5 16 -10 35 -10 l35 0 0 -95 c0 -123 18 -125 22 -3 l3
93 33 3 c64 6 30 22 -48 22 -47 0 -80 -4 -80 -10z"/>
<path d="M6230 226 c0 -3 16 -32 35 -65 25 -42 35 -72 35 -100 0 -23 5 -41 10
-41 6 0 10 18 10 41 0 28 11 60 36 105 23 42 31 64 22 64 -7 -1 -24 -23 -37
-51 -12 -27 -28 -48 -34 -46 -7 2 -22 25 -36 50 -13 26 -28 47 -32 47 -5 0 -9
-2 -9 -4z"/>
<path d="M3870 29 c0 -5 11 -9 25 -9 14 0 25 2 25 4 0 2 -11 6 -25 8 -14 3
-25 1 -25 -3z"/>
<path d="M4750 29 c0 -5 11 -9 25 -9 14 0 25 2 25 4 0 2 -11 6 -25 8 -14 3
-25 1 -25 -3z"/>
<path d="M5278 23 c6 -2 18 -2 25 0 6 3 1 5 -13 5 -14 0 -19 -2 -12 -5z"/>
</g>
</svg>
