<?xml version="1.0" encoding="UTF-8"?> <!-- Generator: Adobe Illustrator 24.1.3, SVG Export Plug-In . SVG Version: 6.00 Build 0) --> <svg xmlns="http://www.w3.org/2000/svg" xmlns:xlink="http://www.w3.org/1999/xlink" version="1.1" id="Layer_1" x="0px" y="0px" viewBox="0 0 120 135" style="enable-background:new 0 0 120 135;" xml:space="preserve"> <style type="text/css"> .st0{fill:#008CDB;} .st1{fill:#FFFFFF;} </style> <path class="st0" d="M52,4.6L9.6,29.2c-4.9,2.9-8,8.1-8,13.8v49c0,5.7,3,11,8,13.8L52,130.4c4.9,2.9,11,2.9,16,0l42.5-24.5 c4.9-2.9,8-8.1,8-13.8V43c0-5.7-3-11-8-13.8L68,4.6C63,1.8,57,1.8,52,4.6z"></path> <g> <g> <g> <path class="st1" d="M50.4,54.9L43.2,80h-2.5L48,54.9H50.4z"></path> <path class="st1" d="M64.2,54.4c3.5,0,6.4,1.2,8.6,3.6c2.2,2.4,3.4,5.5,3.4,9.4c0,3.9-1.1,7.1-3.4,9.4c-2.2,2.4-5.1,3.6-8.6,3.6 c-3.5,0-6.4-1.2-8.7-3.6c-2.3-2.4-3.4-5.5-3.4-9.4c0-3.9,1.1-7.1,3.4-9.4C57.7,55.6,60.6,54.4,64.2,54.4z M64.1,77.6 c2.5,0,4.6-0.9,6.2-2.7c1.6-1.8,2.4-4.3,2.4-7.5c0-3.2-0.8-5.7-2.4-7.5c-1.6-1.8-3.6-2.7-6.1-2.7c-2.5,0-4.6,0.9-6.2,2.7 c-1.6,1.8-2.4,4.3-2.4,7.5c0,3.2,0.8,5.7,2.4,7.5C59.6,76.7,61.6,77.6,64.1,77.6z"></path> <path class="st1" d="M90.1,80.4c-3.5,0-6.2-0.8-7.9-2.4c-1.8-1.6-2.7-3.6-2.8-6.1h3.2c0.2,1.9,1,3.3,2.3,4.2 c1.4,0.9,3.1,1.3,5,1.3c1.9,0,3.4-0.4,4.5-1.1c1.1-0.8,1.7-1.8,1.7-3.1c0-1.4-0.6-2.4-1.8-3s-3.2-1.2-6.1-1.9 c-2.9-0.6-4.9-1.5-6.2-2.5c-1.3-1.1-1.9-2.5-1.9-4.3c0-2,0.8-3.7,2.4-5c1.6-1.3,3.8-2,6.5-2c2.8,0,5.1,0.7,6.9,2 c1.7,1.3,2.7,3.2,2.8,5.6h-3.2c-0.3-3-2.4-4.6-6.2-4.6c-1.9,0-3.3,0.3-4.3,1c-1,0.7-1.5,1.6-1.5,2.8c0,1.1,0.4,1.8,1.2,2.4 c0.8,0.5,2.3,1,4.6,1.5c2.2,0.5,4,1,5.3,1.5c1.3,0.5,2.4,1.2,3.4,2.2c0.9,1,1.4,2.4,1.4,4.1c0,2.2-0.9,4-2.6,5.4 C95.1,79.7,92.8,80.4,90.1,80.4z"></path> </g> </g> <g> <path class="st1" d="M36.5,79.7H20.7v-2.2l8.8-11.3h-7.9v-4h14.8v2.7l-8.4,10.9h8.4V79.7z"></path> </g> </g> </svg> 